<?xml version="1.0" encoding="UTF-8"?>
<!-- Generator: Adobe Illustrator 23.0.1, SVG Export Plug-In . SVG Version: 6.00 Build 0)  -->
<svg version="1.1" id="Layer_1" xmlns="http://www.w3.org/2000/svg" xmlns:xlink="http://www.w3.org/1999/xlink" x="0px" y="0px" viewBox="0 0 48.9 46.9" style="enable-background:new 0 0 48.9 46.9;" xml:space="preserve"><script xmlns=""/>
<style type="text/css">
	.st0{fill:none;stroke:#A39477;stroke-width:1.9;stroke-miterlimit:10;}
</style>
<path id="ic-organigramme" transform="translate(-216.787 -506.486)" class="st0" d="M241.7,528v8.5l-11.2,11.2 M241.6,536.5  l10.9,10.9 M247,513.3c-0.3,3-2.9,5.1-5.9,4.8c-3-0.3-5.1-2.9-4.8-5.9c0.3-2.7,2.6-4.8,5.3-4.8C244.7,507.6,247.1,510.2,247,513.3z   M248,521c0-1-0.5-1.7-1.2-1.7h-10.4c-0.6,0-1.2,0.8-1.2,1.7v7.8H248L248,521z M229.5,537c-0.3,3-2.9,5.1-5.9,4.8  c-3-0.3-5.1-2.9-4.8-5.9c0.3-2.7,2.6-4.8,5.3-4.8C227.2,531.2,229.6,533.9,229.5,537z M230.5,544.6c0-1-0.5-1.7-1.2-1.7h-10.4  c-0.6,0-1.2,0.8-1.2,1.7v7.8h12.7V544.6z M263.7,537c-0.3,3-2.9,5.1-5.9,4.8c-3-0.3-5.1-2.9-4.8-5.9c0.3-2.7,2.6-4.8,5.3-4.8  C261.5,531.2,263.9,533.9,263.7,537z M264.7,544.6c0-1-0.5-1.7-1.2-1.7h-10.4c-0.6,0-1.2,0.8-1.2,1.7v7.8h12.7L264.7,544.6z"/>
</svg>